<?xml version="1.0" encoding="utf-8"?>
<!-- Generator: Adobe Illustrator 16.0.0, SVG Export Plug-In . SVG Version: 6.00 Build 0)  -->
<!DOCTYPE svg PUBLIC "-//W3C//DTD SVG 1.1//EN" "http://www.w3.org/Graphics/SVG/1.1/DTD/svg11.dtd">
<svg version="1.1" id="Layer_1" xmlns="http://www.w3.org/2000/svg" xmlns:xlink="http://www.w3.org/1999/xlink" x="0px" y="0px"
	 width="128px" height="128px" viewBox="0 0 128 128" enable-background="new 0 0 128 128" xml:space="preserve">
<g>
	<g>
		<g>
			<g>
				<path fill="#fff" d="M89.362,87.67l-3.363-2.17l7.925-12.291c2.514-4.846,7.925-8.77,13.479-6.939l2.659,0.873
					c0.159,0.051,0.321,0.119,0.488,0.197l1.941,0.891l-0.971,1.9l-3.782,6.992l-3.52-1.902l2.655-4.91l-0.724-0.238
					c-3.414-1.125-7.034,1.762-8.708,5.049l-0.102,0.176L89.362,87.67z"/>
			</g>
			<g>
				<path fill="#fff" d="M54.831,113.211H38.526v-4.002h15.579l42.471-15.934l25.439-17.688l-0.555-0.564
					c-2.537-2.564-7.056-1.658-10.021,0.498l-0.171,0.111L87.947,89.244H57.676l0.161-4.008l1.93-0.043l17.147,0.041
					c2.911-0.086,5.205-3.42,5.562-6.635H54.703L42.875,89.107h-4.351v-4.002h2.829l11.828-10.508h33.197l0.145,1.846
					c0.01,0.129,0.004,1.379,0.004,1.379c-0.017,2.59-0.917,5.293-2.482,7.42h2.815l5.986-3.516l16.325-9.504
					c4.418-3.168,11.008-4.186,15.135-0.014l1.977,1.998c0.089,0.084,0.197,0.211,0.304,0.342l1.414,1.68l-1.764,1.301
					L98.449,96.848L54.831,113.211z"/>
			</g>
			<g>
				<polygon fill="#fff" points="33.464,126.445 9.966,126.445 9.966,122.443 29.461,122.443 29.461,82.479 0,82.479 0,78.477 
					33.464,78.477 				"/>
			</g>
			<g>
				<rect x="18.651" y="112.334" fill="#fff" width="4.984" height="4.004"/>
			</g>
		</g>
	</g>
	<g>
		<path fill="#fff" d="M79.302,65.09c-14.379,0-26.078-11.814-26.078-26.336c0-7.573,3.235-14.784,8.876-19.783l0.106-0.095
			L79.299,1.554l17.154,17.377c5.685,5.05,8.925,12.263,8.925,19.821C105.378,53.275,93.681,65.09,79.302,65.09z M79.297,7.255
			L64.761,21.961c-4.79,4.245-7.534,10.363-7.534,16.792c0,12.314,9.902,22.333,22.075,22.333c12.171,0,22.073-10.019,22.073-22.334
			c0-6.415-2.75-12.538-7.545-16.797l-0.542-0.51L79.297,7.255z"/>
	</g>
	<g>
		<path fill="#fff" d="M79.302,55.016c-8.884,0-16.112-7.295-16.112-16.263h4.002c0,6.761,5.433,12.26,12.109,12.26V55.016z"/>
	</g>
</g>
</svg>
